<svg id="Botão_ícone_-_insta" data-name="Botão ícone - insta" xmlns="http://www.w3.org/2000/svg" width="24" height="24" viewBox="0 0 24 24">
  <path id="icons8-instagram" d="M14,7a7.008,7.008,0,0,0-7,7V24a7.009,7.009,0,0,0,7,7H24a7.009,7.009,0,0,0,7-7V14a7.008,7.008,0,0,0-7-7Zm12.2,3.84a.96.96,0,1,1-.96.96A.96.96,0,0,1,26.2,10.84ZM19,12.76A6.24,6.24,0,1,1,12.76,19,6.246,6.246,0,0,1,19,12.76Zm0,1.92A4.32,4.32,0,1,0,23.32,19,4.32,4.32,0,0,0,19,14.68Z" transform="translate(-7 -7)" fill="#fff"/>
</svg>
