<svg id="Botão_ícone_-_whatsapp" data-name="Botão ícone - whatsapp" xmlns="http://www.w3.org/2000/svg" width="24" height="24" viewBox="0 0 24 24">
  <path id="icons8-whatsapp" d="M14,2A12,12,0,0,0,3.546,19.89L2.019,25.337a.522.522,0,0,0,.5.663.537.537,0,0,0,.125-.015l5.685-1.408A12,12,0,1,0,14,2Zm6.037,16.234a3.172,3.172,0,0,1-2.08,1.446,4.283,4.283,0,0,1-1.941-.121,18.055,18.055,0,0,1-1.756-.641A13.673,13.673,0,0,1,9,14.326a5.878,5.878,0,0,1-1.258-3.146A3.394,3.394,0,0,1,8.817,8.642a1.139,1.139,0,0,1,.822-.381c.206,0,.411,0,.591.011s.443-.071.693.522c.257.609.873,2.106.949,2.259a.555.555,0,0,1,.026.533,2.05,2.05,0,0,1-.308.508c-.154.178-.323.4-.462.533-.154.152-.315.316-.135.621a9.167,9.167,0,0,0,1.714,2.107,8.446,8.446,0,0,0,2.477,1.51c.308.152.488.127.667-.076s.77-.889.975-1.193.411-.254.693-.152,1.8.837,2.105.989.513.229.591.355A2.508,2.508,0,0,1,20.036,18.234Z" transform="translate(-2 -2)" fill="#fff"/>
</svg>
