<svg width="12560" height="4486" viewBox="0 0 12560 4486" fill="none" xmlns="http://www.w3.org/2000/svg">
<path d="M7329.33 2242.67V4485.33H7392.67H7456V2242.67V-7.11679e-05H7392.67H7329.33V2242.67Z" fill="white"/>
<path d="M2115.07 326.667C1964.13 332.533 1825.6 358.4 1696.8 404.8C1467.6 487.6 1271.2 635.2 1123.07 836C964 1051.87 861.733 1323.6 827.467 1622C818 1704.53 815.333 1753.33 815.333 1850C815.333 1942.8 817.2 1982.13 825.333 2061.33C854.4 2344.13 951.6 2601.87 1108.67 2812.8C1173.73 2900.27 1254.4 2983.87 1338.67 3051.33C1533.87 3207.73 1770.93 3304 2030 3332C2169.6 3347.07 2315.6 3342.93 2454.67 3319.87C2726.27 3274.93 2961.73 3159.87 3136 2986.67C3266.13 2857.2 3359.2 2696.8 3408.4 2516.67C3434.93 2419.87 3450.67 2306.53 3450.67 2212.13V2186.27L3386.4 2187.07C3350.93 2187.47 3226.8 2188.93 3110.53 2190.27L2899.07 2192.53L2898.27 2213.33C2890.53 2399.87 2779.2 2581.2 2596 2705.6C2470.67 2790.93 2318.53 2838.53 2186 2834.13C1952.27 2826.4 1757.33 2726.93 1622.53 2546.67C1514 2401.6 1445.6 2207.47 1425.47 1987.2C1420.67 1935.6 1419.6 1908.53 1419.6 1850C1419.6 1760.53 1424.8 1695.87 1438.67 1613.87C1478.93 1375.87 1578.93 1167.6 1717.6 1032.67C1833.47 919.867 1969.6 858.8 2129.07 848C2169.47 845.333 2279.73 846.8 2331.33 850.667C2528.93 865.733 2662.8 933.067 2764.8 1068.67C2819.73 1142 2863.33 1233.87 2898.13 1350.27C2898.53 1351.6 2954.27 1352 3171.33 1352H3444V1334.93C3444 1300.27 3439.87 1250 3433.87 1208.67C3410.4 1049.2 3346.53 903.467 3245.33 778C3194.13 714.533 3131.73 654.8 3062 602.4C2861.6 451.867 2591.33 354.933 2306 331.333C2248 326.533 2168 324.533 2115.07 326.667Z" fill="white"/>
<path d="M6070.67 392C6006.93 394.267 5970.93 401.6 5940.53 418.8C5927.47 426.133 5904.8 448 5894.8 462.933C5880.67 484.267 5867.6 511.867 5852.8 552.133C5848.53 563.733 5717.73 965.733 5562.13 1445.47L5279.07 2318L5261.47 2318.4L5243.87 2318.8L5242.13 2314.4C5241.07 2312 5103.73 1917.87 4936.93 1438.67C4604.13 483.067 4624.4 541.067 4614.67 516.667C4576.93 422.4 4549.33 406.933 4410.93 403.2C4384.27 402.4 3713.47 409.067 3712.27 410.133C3712 410.267 3715.33 1049.07 3719.6 1829.6L3727.33 3248.67L3997.07 3249.07L4266.67 3249.33V2319.07C4266.67 1768 4267.2 1389.33 4267.87 1390.13C4268.53 1390.8 4426.4 1784.27 4618.53 2264.67C4889.07 2940.4 4971.07 3143.87 4980.8 3163.87C5007.33 3218.13 5024.8 3237.2 5055.6 3245.6C5065.47 3248.27 5070.27 3248.4 5159.33 3249.47C5264.8 3250.8 5394.67 3249.87 5416.67 3247.87C5468.13 3242.8 5490.4 3223.87 5518.93 3160.93C5523.33 3151.2 5683.47 2749.47 5874.8 2268.13C6066.13 1786.93 6223.2 1392.13 6224 1390.8C6224.8 1389.47 6225.33 1721.6 6225.33 2316.27V3244H6494.67H6764V1818V392H6458.93C6291.07 392 6142.13 391.733 6127.87 391.467C6113.6 391.2 6087.87 391.333 6070.67 392Z" fill="white"/>
<path d="M0 1835.73V3246.27L43.0667 3247.07C66.6667 3247.6 197.2 3248 333.067 3248H580L579.733 1836.93L579.333 426L289.733 425.6L0 425.333V1835.73Z" fill="white"/>
<path d="M11085.3 1677.33C11068.8 1679.47 11055.2 1681.2 11055.1 1681.2C11054.8 1681.33 11054.7 1724.93 11054.7 1778.13C11054.7 1869.6 11054.5 1874.8 11052.4 1874.13C11047.1 1872.4 11023.9 1868.13 11012 1866.67C10993.6 1864.27 10963.2 1864.53 10947.3 1867.33C10884.3 1878.27 10838.5 1917.73 10817.9 1979.33C10803.2 2023.2 10803.6 2085.6 10818.8 2128.93C10834.9 2174.8 10864.4 2203.6 10907.5 2215.6C10919.9 2219.07 10922.1 2219.33 10947.3 2219.2C10972.9 2219.2 10974.5 2219.07 10989.6 2214.93C11009.3 2209.6 11025.6 2203.33 11043.3 2194.27C11059.2 2186.13 11058 2185.73 11059.5 2200.93L11060.4 2210.67H11090.1H11120V1942C11120 1686.93 11119.9 1673.33 11117.7 1673.47C11116.4 1673.6 11101.9 1675.33 11085.3 1677.33ZM11014 1918.8C11024 1920.13 11040.7 1923.73 11050.4 1926.8L11054.7 1928.27V2033.47V2138.67L11042.5 2144.8C11015.7 2158.27 10986.8 2164.93 10961.3 2163.47C10936.4 2162.13 10920.9 2155.87 10905.9 2140.8C10898.7 2133.6 10895.1 2128.67 10890.9 2120C10871.1 2078.93 10873.6 2007.33 10896.4 1966.67C10904.9 1951.47 10921.6 1935.33 10936 1928.27C10958.7 1917.2 10980.4 1914.53 11014 1918.8Z" fill="white"/>
<path d="M9156 1712.67C9143.07 1716.93 9130 1730.4 9126 1743.2C9123.2 1752.67 9123.47 1765.07 9126.8 1774C9130.13 1782.93 9140 1794.13 9148.93 1798.93C9161.47 1805.87 9178.8 1806 9191.87 1799.47C9199.73 1795.33 9209.87 1784.53 9214 1775.6C9218.4 1766.4 9218.53 1751.47 9214.53 1740.67C9210.93 1731.07 9200.67 1719.87 9191.07 1715.2C9181.87 1710.67 9165.6 1709.47 9156 1712.67Z" fill="white"/>
<path d="M7956 1961.33V2210.67H7991.33H8026.67V1961.33V1712H7991.33H7956V1961.33Z" fill="white"/>
<path d="M8925.33 1790.67C8913.2 1792.67 8898.93 1795.07 8893.73 1796L8884 1797.6V1835.47V1873.33L8850.4 1873.6L8816.67 1874L8816.27 1899.6L8816 1925.33H8850H8884V2020.53C8884 2121.73 8884.67 2135.33 8890.13 2154.27C8895.07 2171.47 8900.4 2180.53 8912.67 2192.67C8931.47 2211.6 8949.2 2218.53 8982 2219.6C9004.13 2220.4 9018 2218.93 9036 2213.73C9046.13 2210.8 9072 2200.4 9072 2199.2C9072 2198.53 9054.53 2154.13 9054.13 2153.6C9053.87 2153.33 9047.33 2155.2 9039.87 2157.87C8989.73 2174.67 8960 2163.33 8952.53 2124.4C8951.07 2116.4 8950.67 2096.4 8950.67 2019.87V1925.33H9004H9057.33L9057.87 1922.27C9058.8 1918 9064 1878.4 9064 1875.6C9064 1873.47 9060.13 1873.33 9007.33 1873.33H8950.67V1830C8950.67 1796.13 8950.27 1786.67 8949.07 1786.8C8948.13 1786.93 8937.47 1788.53 8925.33 1790.67Z" fill="white"/>
<path d="M9374 1791.47C9359.33 1793.87 9345.33 1796.27 9343.07 1796.67L9338.67 1797.47V1835.33V1873.33H9304.67H9270.67V1899.33V1925.33L9304.4 1925.6L9338 1926L9338.67 2033.33C9339.47 2140.27 9339.47 2140.67 9342.53 2151.33C9350.13 2177.87 9366.27 2198.27 9388 2208.93C9404.93 2217.2 9412.27 2218.8 9436.67 2219.6C9460.4 2220.4 9474 2218.67 9493.47 2212.53C9505.2 2208.93 9525.33 2200.13 9525.33 2198.8C9525.33 2198.4 9521.33 2187.73 9516.4 2175.2L9507.47 2152.4L9499.73 2155.47C9482.8 2162.4 9472.27 2164.53 9454.67 2164.67C9439.07 2164.67 9437.47 2164.4 9430.4 2160.93C9421.73 2156.67 9414.93 2149.2 9410.53 2139.33C9404.53 2125.6 9404.13 2118.53 9404 2018.93V1925.33H9457.73H9511.33L9514.4 1902.27C9516 1889.73 9517.33 1878 9517.33 1876.27V1873.33H9460.67H9404V1830C9404 1796.13 9403.6 1786.67 9402.4 1786.8C9401.47 1786.93 9388.67 1788.93 9374 1791.47Z" fill="white"/>
<path d="M10044 1792.13C10027.5 1794.93 10013.6 1797.2 10013.1 1797.2C10012.4 1797.33 10012 1814.4 10012 1835.33V1873.33H9978H9944V1899.33V1925.33L9977.73 1925.6L10011.3 1926L10012 2032.67C10012.7 2137.6 10012.8 2139.47 10015.7 2150C10020.7 2167.87 10028.4 2181.87 10039.2 2192.53C10059.3 2212.53 10080.3 2220 10116.1 2220C10134.9 2220 10150.4 2217.73 10166.9 2212.53C10178.5 2208.8 10198.7 2200.27 10198.7 2198.8C10198.7 2198.4 10194.8 2187.73 10189.9 2175.2L10181.1 2152.27L10175.5 2154.67C10172.5 2156 10164.7 2158.8 10158 2160.8C10147.7 2163.87 10143.5 2164.4 10128.7 2164.53C10112.8 2164.67 10110.8 2164.4 10104.7 2161.33C10096 2157.07 10089.2 2150 10084.9 2141.2C10078.1 2126.8 10078 2123.87 10078 2021.33V1926L10131.5 1925.6L10184.8 1925.33L10187.9 1901.6C10189.6 1888.67 10191.2 1876.93 10191.6 1875.6C10192.1 1873.47 10188.8 1873.33 10134.8 1873.33H10077.3V1830C10077.3 1796.13 10076.9 1786.67 10075.7 1786.8C10074.8 1786.93 10060.5 1789.33 10044 1792.13Z" fill="white"/>
<path d="M8316.67 1865.47C8287.07 1867.73 8251.47 1878.13 8221.47 1893.2L8210.67 1898.67V1882.67C8210.67 1868.27 8210.4 1866.67 8208.4 1866.67C8207.07 1866.67 8192 1868.27 8175.07 1870.27L8144 1873.87V2042.27V2210.67H8177.33H8210.67V2078.13V1945.6L8224.4 1940.13C8259.47 1926.4 8292.4 1920.53 8321.2 1922.8C8348.93 1925.07 8363.07 1937.33 8368.8 1964C8370.67 1972.67 8371.07 1989.73 8371.6 2092.27L8372.27 2210.67H8404.8H8437.47L8436.93 2078.27C8436.4 1934.4 8436.8 1940.67 8428.8 1919.73C8420.53 1897.73 8405.73 1882.27 8384.27 1873.33C8368 1866.4 8341.73 1863.47 8316.67 1865.47Z" fill="white"/>
<path d="M8628 1865.47C8594 1868.13 8561.2 1882.27 8542.4 1902.4C8522.8 1923.33 8514.8 1951.6 8520.53 1980C8524.13 1997.47 8529.2 2006.8 8541.87 2019.33C8562 2039.07 8582.4 2048 8646 2064.8C8699.6 2078.93 8721.33 2095.33 8721.33 2122.13C8721.33 2143.33 8708.13 2157.87 8682.27 2165.07C8675.73 2166.8 8668.53 2167.33 8648 2167.33C8625.33 2167.2 8620.4 2166.8 8609.33 2164.13C8586.27 2158.4 8563.07 2148.4 8542.53 2135.33C8537.47 2132 8532.67 2129.6 8532 2130C8530.8 2130.67 8505.6 2170.93 8504.4 2174C8504 2175.2 8507.6 2178.4 8514.93 2183.07C8554.27 2208.67 8595.6 2220 8650.27 2220C8678.67 2220 8696.8 2217.6 8716.4 2211.07C8760 2196.67 8785.73 2165.6 8788.8 2123.33C8791.07 2093.2 8779.73 2064.4 8758.67 2047.07C8737.33 2029.47 8710.4 2018 8657.87 2004.13C8598.93 1988.67 8586.8 1980.53 8586.67 1957.2C8586.67 1928.8 8614.8 1913.73 8661.2 1917.47C8686.8 1919.47 8709.73 1926.4 8738 1940.53C8744.53 1943.87 8750 1946.4 8750.13 1946.27C8751.47 1944.53 8776 1900.8 8776 1900.13C8776 1898.67 8744.93 1883.47 8733.33 1879.33C8701.73 1868.13 8662 1862.8 8628 1865.47Z" fill="white"/>
<path d="M10386.7 1865.33C10338.7 1869.2 10301.6 1884.67 10275.6 1911.87C10253.2 1935.33 10240.1 1962.8 10233.7 2000C10230.5 2018.53 10230.5 2065.33 10233.9 2083.33C10241.3 2124.4 10254.9 2153.2 10278 2176.67C10300.9 2200.13 10324.9 2212.27 10359.7 2218C10378.8 2221.2 10421.3 2220.13 10440.3 2216.13C10507.9 2201.47 10550 2159.2 10562.8 2092.67C10566.4 2074.13 10568 2046 10566.5 2024.53C10561.5 1947.6 10525.1 1893.73 10464.7 1873.47C10443.6 1866.4 10412.8 1863.2 10386.7 1865.33ZM10427.5 1921.33C10458.5 1929.2 10479.2 1950.27 10490.4 1985.33C10502 2021.33 10500.8 2076 10487.7 2109.87C10477.2 2137.2 10457.1 2155.87 10430 2163.33C10417.6 2166.8 10389.6 2167.47 10375.9 2164.67C10346.8 2158.8 10327.9 2143.33 10313.9 2114C10304.1 2093.6 10300 2071.73 10300 2041.33C10300 1972 10324.7 1931.2 10372.8 1920.93C10386.9 1917.87 10414.5 1918 10427.5 1921.33Z" fill="white"/>
<path d="M11347.3 1865.47C11310.7 1868.53 11278.8 1882.93 11254.1 1907.47C11230.3 1931.2 11214.3 1962.8 11206.4 2001.73C11203.7 2014.93 11203.3 2020.53 11203.3 2050C11203.3 2071.73 11204 2086.8 11205.1 2093.33C11209.7 2120 11218.7 2143.73 11230.4 2160.8C11241.6 2177.33 11262.4 2194.4 11283.2 2204.13C11309.1 2216.27 11333.5 2220.53 11370.7 2219.6C11399.6 2218.8 11412.3 2216.67 11437.9 2208.4C11451.7 2204 11487.9 2186.8 11494.3 2181.6L11497.1 2179.33L11490.8 2168C11487.3 2161.73 11481.6 2151.47 11478.3 2145.07L11472 2133.6L11452.3 2143.33C11420 2159.47 11401.9 2164 11370.7 2164.27C11350.9 2164.27 11339.2 2162.4 11325.7 2156.93C11309.7 2150.4 11294.8 2138.13 11285.6 2124.13C11276.3 2109.73 11269.3 2083.33 11269.3 2062.27V2053.33H11386.4H11503.6L11504.4 2038.27C11506.8 1998 11504.7 1973.2 11496.9 1950.53C11476.4 1890.67 11420.8 1859.07 11347.3 1865.47ZM11385.6 1917.87C11398.4 1920.67 11408.4 1925.87 11417.9 1934.8C11431.6 1947.6 11438.8 1965.73 11440.8 1992.53L11441.7 2005.33H11357.3H11273.1L11274 1999.07C11276.4 1982.67 11285.3 1961.6 11295.7 1948C11308.4 1931.2 11324 1921.6 11345.5 1917.47C11354.8 1915.6 11375.9 1915.87 11385.6 1917.87Z" fill="white"/>
<path d="M9187.33 1868C9183.73 1868.53 9171.2 1870 9159.73 1871.33L9138.67 1873.73V2042.13V2210.67H9171.33H9204V2038.67V1866.67L9199.07 1866.8C9196.27 1866.93 9191.07 1867.47 9187.33 1868Z" fill="white"/>
<path d="M9631.33 1868.67C9624 1869.6 9611.2 1871.07 9602.93 1872L9587.87 1873.73L9588.27 2005.87C9588.67 2137.73 9588.67 2138 9591.73 2148.67C9595.73 2163.47 9603.87 2179.2 9612 2188.27C9624.93 2202.8 9644.93 2213.47 9667.87 2218C9676.93 2219.87 9683.6 2220.13 9701.87 2219.6C9737.07 2218.53 9762.93 2211.87 9796.67 2195.33C9807.6 2189.87 9814.27 2187.33 9814.8 2188.13C9815.33 2188.93 9816 2192.93 9816.53 2197.07C9817.07 2201.2 9817.73 2205.87 9818.13 2207.6L9818.93 2210.67H9848.13H9877.33V2038.67C9877.33 1875.73 9877.2 1866.67 9875.07 1866.67C9873.73 1866.67 9860.13 1868.13 9844.67 1870C9829.33 1871.87 9815.6 1873.33 9814.4 1873.33C9812.13 1873.33 9812 1880.4 9812 2004V2134.67L9799.07 2140.67C9782.53 2148.4 9765.2 2154.93 9750.67 2158.8C9741.07 2161.47 9736 2161.87 9718 2162C9699.6 2162 9695.33 2161.6 9687.33 2159.07C9672.27 2154.27 9662.67 2144.27 9658 2128.27C9654 2115.07 9653.47 2094.13 9653.33 1980.93V1866.67L9649.07 1866.8C9646.67 1866.93 9638.67 1867.73 9631.33 1868.67Z" fill="white"/>
<path d="M9273.33 2508.93C9254.67 2511.33 9239.2 2513.2 9239.07 2513.33C9238.8 2513.33 9238.67 2649.2 9238.67 2815.33V3117.33H9273.33H9308V2965.47V2813.6L9320.4 2808.27C9336.8 2801.07 9353.73 2795.6 9371.47 2791.87C9392.27 2787.33 9424.27 2787.33 9438.27 2791.73C9455.73 2797.2 9466 2810 9471.6 2832.93C9473.6 2840.93 9473.87 2857.6 9474.27 2979.6L9474.8 3117.33H9509.33H9544V2976.27C9544 2889.07 9543.47 2829.73 9542.67 2820.67C9538.13 2772.8 9519.73 2745.2 9482.4 2730.27C9456.13 2719.73 9410.53 2720.4 9372 2732.13C9356.93 2736.67 9334.13 2746 9320.4 2753.33L9308 2760L9307.73 2632.27L9307.33 2504.67L9273.33 2508.93Z" fill="white"/>
<path d="M8148.53 2538.8C8105.6 2541.87 8061.6 2557.87 8028.67 2582.53C7996.93 2606.27 7967.87 2647.07 7951.47 2691.2C7935.87 2732.93 7928.13 2788.67 7929.73 2848C7933.07 2966.4 7967.87 3046.13 8036.4 3092C8096.93 3132.4 8196.67 3139.33 8274.53 3108.53C8294.67 3100.53 8337.2 3078.53 8343.87 3072.53C8344.4 3072.13 8316.4 3017.33 8314.8 3015.6C8314.27 3015.07 8309.07 3017.33 8303.2 3020.8C8277.47 3036.13 8246.8 3048.4 8221.73 3053.47C8201.07 3057.6 8162.67 3058.53 8144 3055.33C8069.47 3042.93 8024.93 2985.6 8011.2 2884.67C8007.87 2860.53 8007.87 2801.2 8011.07 2776.67C8015.73 2741.73 8023.87 2713.47 8036.27 2688.67C8045.73 2669.87 8054.53 2657.6 8068 2644.93C8089.6 2624.53 8114.27 2613.47 8147.47 2609.2C8165.2 2607.07 8199.33 2608.4 8216.67 2612C8244 2617.73 8275.47 2630.53 8298.8 2645.2C8303.47 2648.13 8307.33 2650.4 8307.47 2650.27C8308.8 2648.53 8338.67 2590.8 8338.67 2589.87C8338.67 2587.6 8306.4 2569.6 8288.67 2561.87C8256.8 2548.13 8225.87 2541.07 8187.47 2538.67C8175.6 2538 8165.47 2537.47 8164.67 2537.6C8164 2537.6 8156.67 2538.13 8148.53 2538.8Z" fill="white"/>
<path d="M10387.1 2549.07C10373.2 2554 10363.2 2563.47 10356.4 2578.13C10353.1 2585.2 10352.7 2587.47 10352.7 2600.67C10352.7 2614.53 10352.9 2615.87 10357.1 2624.27C10364.4 2639.33 10376 2649.07 10391.1 2652.93C10406.3 2656.8 10421.5 2652 10434 2639.47C10442.3 2631.33 10447.7 2620.67 10449.7 2608.93C10453.6 2586.13 10440.3 2560.67 10419.2 2550.8C10410.3 2546.53 10396.1 2545.87 10387.1 2549.07Z" fill="white"/>
<path d="M12011.1 2639.73L11977.3 2645.87V2689.6V2733.33H11942H11906.7V2762.67V2792H11941.9H11977.2L11977.7 2911.6C11978.1 3026.8 11978.3 3031.73 11980.9 3043.33C11989.1 3078.8 12006 3102.67 12032.3 3115.87C12050.1 3124.8 12060.9 3127.07 12086 3127.07C12109.3 3127.07 12119.6 3125.47 12140.3 3118.67C12154.4 3113.87 12173.3 3104.53 12173.3 3102.27C12173.3 3100.93 12156.1 3052.27 12155.2 3050.93C12155.1 3050.67 12149.6 3052.53 12143.1 3055.2C12136.5 3057.73 12127.1 3060.93 12122 3062.13C12110.8 3064.67 12089.5 3065.2 12081.9 3062.93C12069.2 3059.2 12058.5 3048.53 12053.2 3034.4C12046.9 3018.27 12046.7 3011.33 12046.7 2898.53V2792H12102.7C12133.5 2792 12158.7 2791.87 12158.8 2791.6C12158.8 2791.47 12160.5 2778.27 12162.5 2762.27L12166.1 2733.33H12106.4H12046.7V2683.33C12046.7 2655.87 12046.3 2633.47 12045.7 2633.47C12045.1 2633.6 12029.5 2636.4 12011.1 2639.73Z" fill="white"/>
<path d="M8537.33 2724.13C8464 2733.33 8414.27 2775.47 8394.27 2845.33C8381.87 2888.53 8381.2 2948.13 8392.67 2995.6C8411.33 3073.33 8460.8 3119.2 8534 3126.67C8560.53 3129.47 8596.4 3125.87 8620.67 3118C8635.6 3113.07 8659.07 3101.33 8669.47 3093.47C8699.07 3070.93 8721.6 3033.6 8730.4 2991.87C8735.07 2969.87 8736.53 2954.8 8736.53 2926C8736.67 2869.47 8725.47 2825.73 8701.87 2790.4C8671.33 2744.53 8626.8 2722.27 8566.27 2722.8C8555.07 2722.93 8542.13 2723.47 8537.33 2724.13ZM8587.07 2786C8604.93 2789.73 8622.13 2800.4 8634.27 2815.33C8656.53 2842.53 8667.6 2890.67 8664 2944C8659.47 3012.93 8636.8 3049.87 8591.07 3062.93C8577.33 3066.93 8546.67 3067.2 8533.33 3063.6C8492.8 3052.67 8467.73 3018.13 8459.33 2961.73C8456.8 2944.8 8456.4 2905.73 8458.67 2889.2C8466.93 2827.33 8492 2794.4 8537.47 2785.47C8547.2 2783.6 8577.07 2783.87 8587.07 2786Z" fill="white"/>
<path d="M8990.27 2724.67C8964.27 2728.93 8938 2737.6 8910.67 2751.07C8901.47 2755.6 8893.6 2759.47 8893.07 2759.73C8892.4 2760 8892 2752 8892 2742V2723.87L8885.73 2724.67C8882.13 2725.2 8866.8 2727.2 8851.33 2729.07L8823.33 2732.67L8822.93 2925.07L8822.67 3117.33H8857.33H8892L8892.27 2965.73L8892.67 2814.13L8904.4 2809.07C8920.53 2802.13 8942 2795.2 8958 2791.73C8977.73 2787.47 9010.13 2787.47 9023.6 2791.73C9041.07 2797.2 9051.33 2810 9056.93 2832.93C9058.93 2840.93 9059.2 2857.6 9059.6 2979.6L9060.13 3117.33H9094.67H9129.33V2976.27C9129.33 2896.93 9128.67 2829.6 9128 2822.27C9122.8 2769.2 9099.73 2738.13 9056.8 2726.4C9044 2722.93 9007.2 2721.87 8990.27 2724.67Z" fill="white"/>
<path d="M9768.67 2724.13C9735.47 2728.93 9707.47 2743.2 9683.33 2767.33C9663.2 2787.47 9648.93 2811.33 9638.67 2842.67C9629.07 2871.47 9625.33 2897.07 9625.33 2933.2C9625.33 3026.53 9653.47 3082.13 9715.47 3111.6C9765.87 3135.47 9836.27 3132.53 9895.33 3104C9910.93 3096.4 9933.33 3082.67 9933.2 3080.67C9933.2 3080 9927.33 3067.87 9920.27 3053.73L9907.33 3028.27L9897.33 3034.27C9860.67 3056.27 9829.2 3065.2 9794 3063.6C9745.2 3061.33 9712.67 3034.93 9700.67 2987.73C9697.33 2974.27 9693.73 2943.2 9695.07 2939.47C9695.87 2937.47 9706.67 2937.33 9818.53 2937.33H9941.07L9942 2910.93C9944.13 2855.73 9939.73 2827.33 9924.27 2796.67C9908 2764.13 9879.73 2739.87 9846.13 2729.47C9825.87 2723.2 9791.33 2720.8 9768.67 2724.13ZM9816.27 2782.8C9828.27 2785.33 9842.13 2792.67 9850.53 2801.33C9866 2816.93 9872.4 2835.73 9875.33 2872.93L9876 2882.67H9787.33H9698.8L9699.47 2878.27C9699.87 2876 9701.73 2868.4 9703.47 2861.6C9714.27 2819.47 9737.33 2792.53 9769.6 2784C9780.8 2781.07 9804.93 2780.4 9816.27 2782.8Z" fill="white"/>
<path d="M10158.7 2723.33C10157.6 2723.6 10152.1 2724.53 10146.7 2725.33C10124.5 2728.93 10094.5 2741.2 10076.4 2754.13C10044.8 2776.67 10019.9 2815.33 10008.7 2859.33C10001.9 2885.87 10000.7 2897.87 10000.7 2936C10000.8 2981.73 10005.1 3008.4 10016.8 3037.33C10035.5 3083.47 10074.3 3114 10126.7 3124C10181.9 3134.67 10234.3 3123.07 10287.6 3088.53L10298.5 3081.47L10285.1 3055.07C10277.6 3040.53 10271.5 3028.53 10271.5 3028.4C10271.3 3028.27 10265.6 3031.47 10258.7 3035.47C10224.1 3055.47 10206.8 3061.2 10179.2 3062.27C10155.1 3063.2 10142.9 3060.93 10125.5 3052.53C10104 3042 10089.6 3025.07 10081.5 3000.53C10074.4 2979.6 10072.8 2966.8 10072.8 2933.33C10072.9 2908.93 10073.5 2900.53 10075.7 2888C10082.3 2851.6 10094.5 2826.13 10113.9 2808.4C10130.9 2792.8 10148 2786.53 10174 2786.53C10200 2786.53 10219.3 2791.47 10250 2805.87L10264.8 2812.93L10277.1 2785.33C10283.9 2770.27 10289.3 2757.07 10289.3 2756.13C10289.3 2753.87 10256.9 2738.4 10241.6 2733.33C10218.8 2725.73 10207.9 2723.87 10183.3 2723.33C10170.9 2723.07 10159.7 2723.07 10158.7 2723.33Z" fill="white"/>
<path d="M10710.7 2724.67C10686.8 2728.53 10657.3 2739.2 10633.9 2752.27C10626.1 2756.53 10619.6 2760 10619.2 2760C10618.9 2760 10618.7 2751.87 10618.7 2742C10618.7 2732.13 10618.3 2724 10617.7 2724.13C10617.1 2724.13 10601.7 2726.13 10583.3 2728.4L10550 2732.8L10549.6 2925.07L10549.3 3117.33H10584H10618.7V2965.47V2813.73L10633.1 2807.6C10666.5 2793.33 10686.3 2788.67 10713.3 2788.8C10730.1 2788.8 10733.6 2789.2 10740.3 2791.73C10753.9 2797.2 10762.8 2809.2 10767.6 2828.67C10769.6 2837.07 10769.9 2851.73 10770.3 2977.6L10770.8 3117.33H10805.5H10840.1L10839.9 2965.6L10839.7 2814L10852.1 2808.27C10878.4 2796.4 10904.8 2789.47 10928.9 2788.4C10965.3 2786.67 10981.9 2797.33 10990.3 2828.27C10992.3 2835.87 10992.5 2850 10992.9 2976.93L10993.5 3117.33H11028.1H11062.8L11062.3 2963.6C11061.9 2821.6 11061.7 2809.2 11059.5 2800C11053.5 2774.93 11047.7 2763.73 11034 2749.87C11022.3 2738 11008.7 2730.13 10992 2725.73C10978.7 2722 10938.8 2722.53 10920 2726.53C10892.9 2732.27 10856.1 2746.4 10832.3 2760.4L10824.1 2765.2L10818 2756.53C10807.7 2742.13 10791.2 2731.33 10771.3 2725.87C10760.3 2722.8 10725.7 2722.13 10710.7 2724.67Z" fill="white"/>
<path d="M11284.5 2724.67C11260.9 2728.8 11237.5 2738.67 11220 2751.87C11208.1 2760.8 11191.2 2778.67 11182.8 2791.07C11156.1 2830.67 11142 2887.73 11144.5 2946C11148 3023.6 11169.7 3071.07 11215.3 3100.8C11260.4 3130.13 11325.6 3136 11385.6 3116C11401.7 3110.67 11427.7 3098.13 11442 3088.8L11453.3 3081.33L11440 3054.67L11426.7 3028L11416.8 3034C11401.7 3043.2 11378 3054.13 11365.3 3057.73C11329.2 3068.13 11289.5 3065.2 11264.1 3050.4C11252.8 3043.73 11236.1 3026.4 11230.4 3015.33C11221.2 2997.47 11214.7 2969.07 11214.7 2946.8V2937.33H11337.7H11460.9L11461.7 2905.87C11462.9 2852.27 11458.7 2826.67 11443.3 2796C11424.9 2759.33 11393.7 2735.33 11352.3 2725.87C11339.5 2722.93 11298.5 2722.27 11284.5 2724.67ZM11337.9 2783.33C11362.7 2789.87 11380.9 2807.73 11388.5 2833.33C11391.6 2843.2 11394.7 2864.13 11394.7 2874.27V2882.67H11306.7C11221.6 2882.67 11218.7 2882.53 11218.7 2880.13C11218.7 2878.8 11220.1 2872 11221.9 2865.2C11233.3 2819.73 11255.9 2792.93 11289.6 2784C11302 2780.8 11326.7 2780.4 11337.9 2783.33Z" fill="white"/>
<path d="M11715.9 2724.67C11689.6 2728.93 11663.9 2737.33 11636.4 2750.8C11626 2755.87 11617.2 2760 11616.8 2760C11616.4 2760 11616 2751.87 11616 2742V2724L11610.4 2724.8C11607.2 2725.2 11592.1 2727.2 11576.7 2729.07L11548.7 2732.67L11548.3 2924.93L11548 3117.33H11582H11616V2966.67V2816L11619.1 2814.13C11624.7 2810.4 11651.6 2800.13 11665.9 2796.13C11693.3 2788.4 11722.9 2786 11741.5 2789.87C11764.4 2794.8 11776.5 2807.73 11782.3 2833.6C11784.1 2842.13 11784.5 2859.6 11784.9 2980.27L11785.5 3117.33H11820.1H11854.8L11854.3 2967.6C11853.9 2821.47 11853.7 2817.73 11850.9 2805.33C11841.1 2760.4 11820.3 2736.67 11782 2726.53C11768.3 2722.8 11733.1 2721.87 11715.9 2724.67Z" fill="white"/>
<path d="M12359.3 2724.13C12286.7 2733.47 12236.9 2775.73 12216.9 2845.33C12204.3 2889.33 12203.9 2950.13 12216 2998C12240.5 3095.47 12314.5 3141.73 12418 3124C12454.9 3117.73 12487.2 3101.33 12509.7 3077.47C12535.7 3049.87 12550.9 3014.53 12557.5 2966.67C12560.1 2948 12559.7 2900.4 12556.8 2880.93C12545.6 2803.73 12507.7 2751.33 12448.7 2731.07C12426.8 2723.6 12387.9 2720.53 12359.3 2724.13ZM12409.7 2786C12446.5 2793.73 12471.9 2824.27 12482.5 2873.87C12490.5 2910.53 12488.1 2966.53 12477.3 2998.67C12465.6 3033.47 12445.3 3053.87 12413.7 3062.93C12400 3066.93 12369.3 3067.2 12356 3063.6C12327.9 3056 12306.5 3036.4 12294 3006.67C12284.3 2983.47 12279.9 2958 12280 2924.27C12280 2898.8 12281.3 2884.13 12285.3 2867.33C12296.5 2819.47 12320.5 2793.2 12360.1 2785.47C12369.9 2783.6 12399.7 2783.87 12409.7 2786Z" fill="white"/>
<path d="M10399.3 2728.53L10367.3 2732.67L10366.9 2925.07L10366.7 3117.33H10401.3H10436V2920.67C10436 2734.13 10435.9 2724 10433.7 2724.13C10432.4 2724.27 10416.9 2726.27 10399.3 2728.53Z" fill="white"/>
<path d="M7969.33 3782.67V4078.67H8028H8086.67V3887.33C8086.67 3782.13 8087.07 3696 8087.73 3696C8088.27 3696.13 8093.47 3704 8099.2 3713.73C8133.33 3770.67 8225.87 3921.2 8236.27 3936.53C8240.67 3942.93 8241.87 3944 8243.33 3942.53C8244.27 3941.47 8278.4 3885.47 8319.33 3818C8360.13 3750.53 8394.13 3694.8 8394.8 3694C8395.47 3693.33 8396 3769.33 8396 3885.73V4078.67H8454.67H8513.33V3782.67V3486.67H8449.07L8384.67 3486.8L8313.6 3611.33C8274.53 3679.87 8242 3736 8241.6 3736C8241.07 3736 8208.53 3679.87 8169.33 3611.33L8098.13 3486.67H8033.73H7969.33V3782.67Z" fill="white"/>
<path d="M9129.33 3567.33V3625.33H9104H9078.67V3680V3734.67L9103.73 3734.93L9128.67 3735.33L9129.47 3860.67C9130.13 3971.07 9130.4 3987.2 9132.4 3996C9143.33 4044.8 9168 4072.67 9208.53 4082C9222.13 4085.2 9246.4 4087.07 9260.67 4086C9288.53 4084.13 9308.67 4078.67 9331.07 4066.93L9342.67 4060.8V4009.73C9342.67 3981.6 9342.4 3958.67 9342 3958.67C9341.6 3958.67 9337.73 3960.4 9333.33 3962.67C9319.33 3969.73 9303.73 3973.6 9287.87 3973.73C9274.67 3974 9273.33 3973.73 9265.87 3970C9259.6 3966.67 9257.2 3964.53 9253.73 3958.8C9251.33 3954.8 9248.8 3948.53 9248 3944.8C9247.07 3940.27 9246.8 3904 9246.93 3836.67L9247.33 3735.33L9295.73 3734.93L9344 3734.67V3680V3625.33H9295.33H9246.67V3567.33V3509.33H9188H9129.33V3567.33Z" fill="white"/>
<path d="M8796 3618.13C8719.6 3627.73 8658.27 3678.93 8628.93 3757.33C8611.87 3803.07 8607.47 3861.6 8617.47 3911.33C8623.6 3942 8638.53 3977.07 8655.73 4001.33C8667.47 4018 8690.8 4041.2 8706.4 4051.73C8720.27 4061.2 8743.47 4072.67 8759.2 4077.87C8803.07 4092.4 8861.47 4092 8903.6 4077.2C8931.73 4067.2 8953.87 4052.93 8977.47 4029.47C8986.67 4020.27 8995.47 4010.8 8997.07 4008.53L8999.87 4004.4L8972.27 3977.87C8957.07 3963.2 8941.87 3948.67 8938.4 3945.47L8932 3939.73L8922.4 3948.67C8902.8 3966.8 8879.87 3979.07 8857.47 3983.6C8842.27 3986.53 8816.53 3986.13 8803.33 3982.8C8774.4 3975.33 8754 3958.53 8740.67 3931.33C8735.87 3921.47 8729.33 3902.53 8729.33 3898.4C8729.33 3897.73 8794.4 3897.33 8873.87 3897.33C8985.6 3897.33 9018.8 3896.93 9019.47 3895.73C9021.47 3892.53 9020.53 3834.67 9018.13 3817.33C9009.47 3752.93 8989.07 3707.33 8952.8 3671.33C8924.4 3643.07 8894.93 3627.33 8858 3620.67C8846.4 3618.53 8806 3616.93 8796 3618.13ZM8845.2 3724.4C8857.73 3728.8 8866.27 3734.4 8875.6 3744.53C8884.67 3754.27 8891.87 3766.13 8897.33 3780.13C8901.2 3790.27 8906.8 3814.4 8905.73 3816.27C8905.47 3816.93 8865.33 3817.33 8816.53 3817.33C8730.53 3817.33 8728 3817.2 8728 3814.8C8728 3813.47 8729.47 3806.67 8731.2 3799.87C8743.07 3754.8 8767.6 3727.6 8802.4 3721.33C8813.6 3719.2 8834.67 3720.8 8845.2 3724.4Z" fill="white"/>
<path d="M9559.6 3622.67C9526 3626.53 9495.07 3634.93 9458.4 3650.27C9450.4 3653.6 9444 3656.93 9444 3657.87C9444 3658.67 9450.4 3680.8 9458.27 3707.07C9470 3746.13 9472.93 3754.53 9474.67 3753.73C9484.13 3749.47 9524.93 3736.93 9537.2 3734.53C9558 3730.4 9606.13 3729.87 9620 3733.73C9634.8 3737.73 9647.47 3744.53 9655.73 3752.93C9669.47 3766.8 9675.47 3782.27 9676.93 3806.93L9677.73 3821.2L9661.73 3816C9628.53 3805.33 9602.53 3801.87 9566 3803.07C9553.6 3803.47 9538 3804.8 9531.33 3806C9485.87 3814 9450.8 3834 9430.67 3863.33C9424 3873.07 9415.2 3892.93 9411.87 3906C9409.07 3916.8 9408.67 3920.93 9408.67 3947.33C9408.67 3975.2 9408.8 3977.33 9412.27 3989.73C9418.93 4013.2 9430.8 4033.47 9447.47 4049.47C9462.53 4063.73 9477.73 4072.67 9498.4 4079.2C9528.27 4088.53 9566.4 4089.33 9598.53 4081.2C9620.4 4075.73 9646 4060.53 9664.93 4041.73L9676 4030.93V4054.8V4078.67H9733.33H9790.8L9790.27 3930.93C9789.73 3770.4 9790 3773.87 9782 3742.53C9765.33 3676.67 9723.33 3637.87 9654 3624.53C9641.47 3622.13 9576.27 3620.8 9559.6 3622.67ZM9636.4 3882.13C9647.33 3884.27 9668.4 3890.8 9675.07 3894.13L9678.67 3896.13V3913.07C9678.67 3923.47 9677.87 3933.33 9676.67 3938.53C9670.27 3965.33 9648.67 3986.13 9617.73 3994.93C9603.6 3999.07 9572.53 3999.33 9561.33 3995.47C9550 3991.6 9544.13 3988.27 9537.07 3981.6C9526.53 3971.73 9521.33 3958.67 9521.33 3942C9521.33 3907.73 9544.67 3885.2 9585.33 3880.13C9597.87 3878.53 9622.53 3879.47 9636.4 3882.13Z" fill="white"/>
</svg>
