<svg xmlns="http://www.w3.org/2000/svg" width="96.25" height="70" viewBox="0 0 96.25 70">
  <path id="diversity_3_24dp_5F6368_FILL0_wght400_GRAD0_opsz24" d="M40-730v-17.5a8.374,8.374,0,0,1,2.57-6.234,8.518,8.518,0,0,1,6.18-2.516H63.078a8.434,8.434,0,0,1,4.156,1.094,8.813,8.813,0,0,1,3.172,2.953,22.562,22.562,0,0,0,7.82,6.672,21.23,21.23,0,0,0,9.9,2.406,21.453,21.453,0,0,0,10.008-2.406,21.578,21.578,0,0,0,7.711-6.672,11.142,11.142,0,0,1,3.336-2.953,7.936,7.936,0,0,1,3.992-1.094H127.5a8.466,8.466,0,0,1,6.234,2.516,8.467,8.467,0,0,1,2.516,6.234V-730H105.625v-9.953a29.8,29.8,0,0,1-8.258,4.156,30.054,30.054,0,0,1-9.242,1.422,29.194,29.194,0,0,1-9.187-1.477,30.782,30.782,0,0,1-8.312-4.211V-730Zm48.125-17.5a16.973,16.973,0,0,1-7.875-1.914,17.832,17.832,0,0,1-6.234-5.3,13.843,13.843,0,0,0-4.648-4.32,12.072,12.072,0,0,0-6.07-1.586q2.406-4.047,10.172-6.4a50.645,50.645,0,0,1,14.656-2.352,50.645,50.645,0,0,1,14.656,2.352q7.766,2.352,10.172,6.4a12.168,12.168,0,0,0-6.016,1.586,13.678,13.678,0,0,0-4.7,4.32,16.041,16.041,0,0,1-6.125,5.359A17.607,17.607,0,0,1,88.125-747.5Zm-35-13.125a12.657,12.657,0,0,1-9.3-3.828A12.657,12.657,0,0,1,40-773.75a12.606,12.606,0,0,1,3.828-9.352,12.751,12.751,0,0,1,9.3-3.773,12.7,12.7,0,0,1,9.352,3.773,12.7,12.7,0,0,1,3.773,9.352,12.751,12.751,0,0,1-3.773,9.3A12.606,12.606,0,0,1,53.125-760.625Zm70,0a12.657,12.657,0,0,1-9.3-3.828,12.657,12.657,0,0,1-3.828-9.3,12.606,12.606,0,0,1,3.828-9.352,12.751,12.751,0,0,1,9.3-3.773,12.7,12.7,0,0,1,9.352,3.773,12.7,12.7,0,0,1,3.773,9.352,12.751,12.751,0,0,1-3.773,9.3A12.606,12.606,0,0,1,123.125-760.625Zm-35-13.125a12.657,12.657,0,0,1-9.3-3.828,12.657,12.657,0,0,1-3.828-9.3,12.606,12.606,0,0,1,3.828-9.352,12.751,12.751,0,0,1,9.3-3.773,12.7,12.7,0,0,1,9.352,3.773,12.7,12.7,0,0,1,3.773,9.352,12.751,12.751,0,0,1-3.773,9.3A12.606,12.606,0,0,1,88.125-773.75Z" transform="translate(-40 800)" fill="#333"/>
</svg>
