<svg xmlns="http://www.w3.org/2000/svg" width="70" height="62.222" viewBox="0 0 70 62.222">
  <path id="Caminho_68" data-name="Caminho 68" d="M64.911,7.928A5.811,5.811,0,0,0,59.389,4H16.611a5.848,5.848,0,0,0-5.522,3.928L3,31.222V62.333a3.9,3.9,0,0,0,3.889,3.889h3.889a3.9,3.9,0,0,0,3.889-3.889V58.444H61.333v3.889a3.9,3.9,0,0,0,3.889,3.889h3.889A3.9,3.9,0,0,0,73,62.333V31.222Zm-48.3,38.85a5.833,5.833,0,1,1,5.833-5.833A5.826,5.826,0,0,1,16.611,46.778Zm42.778,0a5.833,5.833,0,1,1,5.833-5.833A5.826,5.826,0,0,1,59.389,46.778ZM10.778,27.333l5.833-17.5H59.389l5.833,17.5Z" transform="translate(-3 -4)" fill="#333"/>
</svg>
