<svg xmlns="http://www.w3.org/2000/svg" width="72" height="51" viewBox="0 0 72 51">
  <path id="wifi_24dp_5F6368_FILL0_wght400_GRAD0_opsz24" d="M36-749a7.242,7.242,0,0,1-5.325-2.175A7.242,7.242,0,0,1,28.5-756.5a7.242,7.242,0,0,1,2.175-5.325A7.242,7.242,0,0,1,36-764a7.242,7.242,0,0,1,5.325,2.175A7.242,7.242,0,0,1,43.5-756.5a7.242,7.242,0,0,1-2.175,5.325A7.242,7.242,0,0,1,36-749ZM19.05-765.95l-6.3-6.45a33.249,33.249,0,0,1,10.387-7.013A31.957,31.957,0,0,1,36-782a31.563,31.563,0,0,1,12.862,2.625A33.138,33.138,0,0,1,59.25-772.25l-6.3,6.3a24.336,24.336,0,0,0-7.65-5.175A23.242,23.242,0,0,0,36-773a23.242,23.242,0,0,0-9.3,1.875A24.336,24.336,0,0,0,19.05-765.95ZM6.3-778.7,0-785a50.026,50.026,0,0,1,16.125-11.025A49.683,49.683,0,0,1,36-800a49.683,49.683,0,0,1,19.875,3.975A50.026,50.026,0,0,1,72-785l-6.3,6.3a42.326,42.326,0,0,0-13.388-9.037A40.968,40.968,0,0,0,36-791a40.968,40.968,0,0,0-16.312,3.263A42.326,42.326,0,0,0,6.3-778.7Z" transform="translate(0 800)" fill="#333"/>
</svg>
