<svg xmlns="http://www.w3.org/2000/svg" width="70" height="70" viewBox="0 0 70 70">
  <path id="icons8-whatsapp" d="M37,2A35,35,0,0,0,6.509,54.18L2.056,70.067A1.522,1.522,0,0,0,3.522,72a1.567,1.567,0,0,0,.365-.044l16.581-4.107A35,35,0,1,0,37,2ZM54.607,49.35c-.749,2.073-4.34,3.964-6.066,4.218a12.491,12.491,0,0,1-5.661-.352,52.66,52.66,0,0,1-5.122-1.87c-9.013-3.844-14.9-12.805-15.35-13.4s-3.669-4.81-3.669-9.176a9.9,9.9,0,0,1,3.145-7.4,3.321,3.321,0,0,1,2.4-1.111c.6,0,1.2.008,1.723.032.552.027,1.293-.208,2.022,1.523.749,1.777,2.546,6.143,2.768,6.589a1.619,1.619,0,0,1,.076,1.555,5.981,5.981,0,0,1-.9,1.481c-.45.519-.943,1.157-1.348,1.555-.45.443-.918.922-.394,1.811a26.738,26.738,0,0,0,5,6.146,24.635,24.635,0,0,0,7.225,4.4c.9.444,1.423.37,1.946-.222s2.246-2.592,2.844-3.479,1.2-.741,2.022-.444,5.242,2.441,6.14,2.885,1.5.667,1.723,1.036A7.315,7.315,0,0,1,54.607,49.35Z" transform="translate(-2 -2)" fill="#333"/>
</svg>
